<?xml version="1.0" encoding="UTF-8"?>
<svg width="142px" height="25px" viewBox="0 0 142 25" version="1.1" xmlns="http://www.w3.org/2000/svg" xmlns:xlink="http://www.w3.org/1999/xlink">
    <!-- Generator: Sketch 55.2 (78181) - https://sketchapp.com -->
    <title>Logo</title>
    <desc>Created with Sketch.</desc>
    <g id="Symbols" stroke="none" stroke-width="1" fill="none" fill-rule="evenodd">
        <g id="Logo-desktop" transform="translate(-11.000000, -7.000000)">
            <g id="Logo" transform="translate(10.000000, 5.000000)">
                <g id="Pizza-slice" transform="translate(14.000000, 15.000000) rotate(-19.000000) translate(-14.000000, -15.000000) translate(4.000000, 3.000000)">
                    <g>
                        <path d="M9.33077854,23.5509515 L0.0614928637,2.6212887 C-0.104516777,2.24638263 0.0771616029,1.81313309 0.467306575,1.65358907 C0.476466918,1.64984308 0.48570222,1.64626866 0.495007242,1.64286784 C3.50677837,0.542117953 6.68830469,-0.00549082744 10.0395862,0 C13.3901467,0.00567628819 16.5472528,0.563609117 19.5109045,1.67383999 C19.9059667,1.82183282 20.1013724,2.24955026 19.9473567,2.62917039 C19.9447336,2.63563601 19.9420156,2.64206575 19.9392036,2.64845767 L10.7443867,23.5493183 C10.5792865,23.9246099 10.128838,24.1002347 9.73828179,23.9415873 C9.55486819,23.867083 9.40875398,23.7270168 9.33077854,23.5509515 Z" id="Triangle" fill="#F3A82E"></path>
                        <ellipse id="Oval-Copy-5" fill="#D0021B" cx="5.29411765" cy="6.28571429" rx="2.94117647" ry="2.85714286"></ellipse>
                        <ellipse id="Oval-Copy-6" fill="#D0021B" cx="13.5294118" cy="5.14285714" rx="2.94117647" ry="2.85714286"></ellipse>
                        <ellipse id="Oval-Copy" fill="#D0021B" cx="10" cy="14.2857143" rx="2.94117647" ry="2.85714286"></ellipse>
                    </g>
                </g>
                <g id="SLICE-IT" transform="translate(28.202628, 6.167154)" fill-rule="nonzero">
                    <path d="M11.95,5.95 C11.4499975,5.6499985 10.933336,5.3833345 10.4,5.15 C9.94999775,4.949999 9.44583613,4.76250087 8.8875,4.5875 C8.32916388,4.41249912 7.783336,4.325 7.25,4.325 C6.8166645,4.325 6.47083463,4.391666 6.2125,4.525 C5.95416538,4.658334 5.825,4.88333175 5.825,5.2 C5.825,5.4333345 5.89999925,5.62499925 6.05,5.775 C6.20000075,5.92500075 6.41666525,6.06249938 6.7,6.1875 C6.98333475,6.31250063 7.32916463,6.43333275 7.7375,6.55 C8.14583538,6.66666725 8.60833075,6.8083325 9.125,6.975 C9.94167075,7.22500125 10.6791634,7.5 11.3375,7.8 C11.9958366,8.1000015 12.558331,8.45416463 13.025,8.8625 C13.491669,9.27083537 13.8499988,9.76666375 14.1,10.35 C14.3500013,10.9333362 14.475,11.6416625 14.475,12.475 C14.475,13.541672 14.2791686,14.4374964 13.8875,15.1625 C13.4958314,15.8875036 12.9791699,16.4666645 12.3375,16.9 C11.6958301,17.3333355 10.9708374,17.6458324 10.1625,17.8375 C9.35416263,18.0291676 8.54167075,18.125 7.725,18.125 C7.07499675,18.125 6.40833675,18.0750005 5.725,17.975 C5.04166325,17.8749995 4.36250338,17.7333342 3.6875,17.55 C3.01249663,17.3666658 2.36250313,17.1500013 1.7375,16.9 C1.11249688,16.6499988 0.533336,16.3666683 4.40536496e-13,16.05 L2.1,11.775 C2.68333625,12.1416685 3.2916635,12.4666653 3.925,12.75 C4.458336,13 5.06249663,13.224999 5.7375,13.425 C6.41250338,13.625001 7.0999965,13.725 7.8,13.725 C8.333336,13.725 8.70416563,13.6541674 8.9125,13.5125 C9.12083438,13.3708326 9.225,13.1833345 9.225,12.95 C9.225,12.6999988 9.12083438,12.4875009 8.9125,12.3125 C8.70416563,12.1374991 8.4166685,11.983334 8.05,11.85 C7.6833315,11.716666 7.26250238,11.583334 6.7875,11.45 C6.31249763,11.316666 5.808336,11.1583342 5.275,10.975 C4.49166275,10.708332 3.8166695,10.4208349 3.25,10.1125 C2.6833305,9.80416513 2.2166685,9.45416863 1.85,9.0625 C1.4833315,8.67083138 1.21250088,8.2250025 1.0375,7.725 C0.862499125,7.2249975 0.775,6.65000325 0.775,6 C0.775,5.01666175 0.954164875,4.15000375 1.3125,3.4 C1.67083513,2.64999625 2.15833025,2.0250025 2.775,1.525 C3.39166975,1.0249975 4.09582938,0.645834625 4.8875,0.3875 C5.67917063,0.129165375 6.51666225,-1.77635684e-15 7.4,-1.77635684e-15 C8.05000325,-1.77635684e-15 8.68333025,0.062499375 9.3,0.1875 C9.91666975,0.312500625 10.5124971,0.470832375 11.0875,0.6625 C11.6625029,0.854167625 12.1999975,1.06249888 12.7,1.2875 C13.2000025,1.51250112 13.649998,1.724999 14.05,1.925 L11.95,5.95 Z M18.8914827,17.9 L18.8914827,0.15 L23.7664827,0.15 L23.7664827,13.65 L31.8164827,13.65 L31.8164827,17.9 L18.8914827,17.9 Z M35.7829654,17.9 L35.7829654,0.15 L40.6579654,0.15 L40.6579654,17.9 L35.7829654,17.9 Z M44.9994481,8.875 C44.9994481,7.79166125 45.2036127,6.72500525 45.6119481,5.675 C46.0202835,4.62499475 46.6161108,3.6833375 47.3994481,2.85 C48.1827853,2.0166625 49.1327758,1.34166925 50.2494481,0.825 C51.3661203,0.30833075 52.6411076,0.05 54.0744481,0.05 C55.7911233,0.05 57.2786085,0.404163125 58.5369481,1.1125 C59.7952877,1.82083687 60.7327783,2.7583275 61.3494481,3.925 L57.6244481,6.575 C57.4577806,6.1416645 57.2369495,5.78333475 56.9619481,5.5 C56.6869467,5.21666525 56.3827831,4.9916675 56.0494481,4.825 C55.7161131,4.6583325 55.3702832,4.541667 55.0119481,4.475 C54.653613,4.408333 54.3077831,4.375 53.9744481,4.375 C53.2744446,4.375 52.670284,4.51249863 52.1619481,4.7875 C51.6536122,5.06250137 51.2369497,5.42083112 50.9119481,5.8625 C50.5869465,6.30416888 50.3452822,6.80416387 50.1869481,7.3625 C50.028614,7.92083612 49.9494481,8.47499725 49.9494481,9.025 C49.9494481,9.64166975 50.0411138,10.2333305 50.2244481,10.8 C50.4077823,11.3666695 50.6744463,11.8666645 51.0244481,12.3 C51.3744498,12.7333355 51.8036122,13.0791654 52.3119481,13.3375 C52.820284,13.5958346 53.3911116,13.725 54.0244481,13.725 C54.3577831,13.725 54.6994463,13.6875004 55.0494481,13.6125 C55.3994498,13.5374996 55.7369465,13.4125009 56.0619481,13.2375 C56.3869497,13.0624991 56.6786135,12.8375014 56.9369481,12.5625 C57.1952827,12.2874986 57.3994473,11.950002 57.5494481,11.55 L61.5244481,13.925 C61.2577801,14.5750032 60.8536175,15.1583307 60.3119481,15.675 C59.7702787,16.1916692 59.1536182,16.6249982 58.4619481,16.975 C57.770278,17.3250017 57.0286187,17.5916657 56.2369481,17.775 C55.4452775,17.9583343 54.6744518,18.05 53.9244481,18.05 C52.6077748,18.05 51.4036202,17.7875026 50.3119481,17.2625 C49.220276,16.7374974 48.2786187,16.041671 47.4869481,15.175 C46.6952775,14.308329 46.0827836,13.3250055 45.6494481,12.225 C45.2161126,11.1249945 44.9994481,10.008339 44.9994481,8.875 Z M78.1659308,13.65 L78.1659308,17.9 L65.5159308,17.9 L65.5159308,0.15 L77.9409308,0.15 L77.9409308,4.4 L70.3909308,4.4 L70.3909308,6.9 L76.8409308,6.9 L76.8409308,10.85 L70.3909308,10.85 L70.3909308,13.65 L78.1659308,13.65 Z" id="SLICE" fill="#FFFFFF"></path>
                    <path d="M90.5988962,17.9 L90.5988962,0.15 L95.4738962,0.15 L95.4738962,17.9 L90.5988962,17.9 Z M114.615379,4.4 L109.515379,4.4 L109.515379,17.9 L104.640379,17.9 L104.640379,4.4 L99.5153788,4.4 L99.5153788,0.15 L114.615379,0.15 L114.615379,4.4 Z" id="IT" fill="#D0021B"></path>
                </g>
            </g>
        </g>
    </g>
</svg>